/* XPM */
static char * close_pressed_xpm[] = {
"30 30 28 1",
" 	c None",
".	c #3560A0",
"+	c #8B568E",
"@	c #B04E7D",
"#	c #C5476F",
"$	c #CE4468",
"%	c #CF4366",
"&	c #D04366",
"*	c #A45183",
"=	c #D04266",
"-	c #CF4266",
";	c #D57B92",
">	c #D04C6D",
",	c #D57C92",
"'	c #DCDFE8",
")	c #DAC1CD",
"!	c #DAC0CD",
"~	c #DCDEE7",
"{	c #DAC4D0",
"]	c #D04E6E",
"^	c #D9C0CC",
"/	c #DAC3CF",
"(	c #D04D6E",
"_	c #DAC7D2",
":	c #DAC2CF",
"<	c #DAC6D1",
"[	c #DAC2CE",
"}	c #DAC5D1",
"..............................",
"..............................",
"..............................",
"..............................",
"..............................",
"...........+@#$$#@+...........",
".........+#%%&&&&%&#+.........",
"........*&%&&&&&&&&&&*........",
".......*=&&&&&&&&&&&&-*.......",
"......+%&&&&&&&&&&&&&&&+......",
"......#&&&&;>&&&&>;&&&=#......",
".....+&&&&,')>&&>!~,&&&=+.....",
".....@&&&&>!'{]>^~/(&&&%@.....",
".....#&&&&&>!'_:~/(&&&&&#.....",
".....$&&&&&&>:''<(&&&&&&$.....",
".....$&&&&&&>[''_]&&&&&&$.....",
".....#&&&&&>^~}:'{]&&&&=#.....",
".....@&&&&>^~/(>!'{]&&&=@.....",
".....+&&&&,~!>&&>)',&&&-+.....",
"......#&&&&;>&&&&>;&&&&#......",
"......+&%&&&&&&&&&&&&&&+......",
".......*%=&&&&&&&&&&&&*.......",
"........*-&&&&&&&&&=%*........",
".........+#=&&=&&=&#+.........",
"...........+@#$$#@+...........",
"..............................",
"..............................",
"..............................",
"..............................",
".............................."};
