/* XPM */
static char * close_inactive_xpm[] = {
"30 30 62 1",
" 	c None",
".	c #3560A0",
"+	c #6B5B97",
"@	c #92558B",
"#	c #A95081",
"$	c #B14D7C",
"%	c #94558A",
"&	c #6E5B97",
"*	c #575E9B",
"=	c #A05285",
"-	c #B44D7B",
";	c #A25284",
">	c #5A5D9B",
",	c #675C98",
"'	c #AF4E7E",
")	c #B04E7D",
"!	c #6A5B97",
"~	c #555E9C",
"{	c #9E5286",
"]	c #B87496",
"^	c #B5537F",
"/	c #A25184",
"(	c #695C98",
"_	c #B87596",
":	c #BEC5D6",
"<	c #BDACC2",
"[	c #BDABC1",
"}	c #BEC4D6",
"|	c #6D5B97",
"1	c #90558C",
"2	c #B5527E",
"3	c #BDAFC3",
"4	c #BCABC0",
"5	c #BDAEC3",
"6	c #93558B",
"7	c #A65182",
"8	c #BDB1C5",
"9	c #BDADC3",
"0	c #A85081",
"a	c #AE4E7E",
"b	c #BDB0C5",
"c	c #AD4F7E",
"d	c #BDADC2",
"e	c #A55183",
"f	c #BDAFC5",
"g	c #8E568D",
"h	c #91558B",
"i	c #645C99",
"j	c #685C98",
"k	c #9C5387",
"l	c #505E9D",
"m	c #AB4F7F",
"n	c #605D99",
"o	c #AD4E7F",
"p	c #655C99",
"q	c #505E9C",
"r	c #9D5287",
"s	c #535E9C",
"t	c #635C99",
"u	c #A45183",
"v	c #8F568C",
"w	c #665C98",
"..............................",
"..............................",
"..............................",
"..............................",
"..............................",
"..............................",
"...........+@#$$#%&...........",
".........*=--------;>.........",
"........,'----------)!........",
".......~'------------)>.......",
".......{---]^----^]---/.......",
"......(---_:<^--^[}_---|......",
"......1---2[:3^24}5^---6......",
"......7----2[:89}5^----0......",
"......a-----29::b^-----$......",
"......c-----2d::8^-----)......",
"......e----24}f9:3^----0......",
"......g---24}5^2[:3^---h......",
"......i---_}[^--^<:_---j......",
".......k---]^----^]---=.......",
".......lm------------'*.......",
"........no----------ap........",
".........qk--------rs.........",
"...........tguocevw...........",
"..............................",
"..............................",
"..............................",
"..............................",
"..............................",
".............................."};
